
[url=http://www.imdb.com/title/tt1059786/][img]http://img545.imageshack.us/img545/1896/imdb1t.png[/img][/url]
[color=red]StoryLine[/color]
[color=green]Jerry Shaw is an amiable slacker with an over-achieving twin brother. After his twin dies in an accident, strange things happen to Jerry at a dizzying pace: a fortune shows up in his bank account, weapons are delivered to his flat, and a voice on his cell phone tells him the police are on their way. Jerry follows the voice's instructions, and soon he and a woman he's never met are racing through the city, on to a plane, and eventually to the Pentagon, chased by the FBI. She is Rachel Holloman, a single mom; the voice has threatened her son's death if she doesn't cooperate. The voice seems to know everything. Who is behind it, what is being planned, and why Jerry and Rachel?[/color]
[img]http://themoviepostersite.com/images/gallery/1464/wallpaper_01_1600x1200.jpg[/img]
Format                           : Matroska
File size                        : 1.85 GiB
Duration                         : 1h 57mn
Overall bit rate                 : 2 256 Kbps
Movie name                       : Eagle Eye 2008 BRRip 720p ^^Dual Audio Eng Hindi ^^TAKRIAN^^
Encoded date                     : UTC 2012-01-25 16:06:02
Writing application              : mkvmerge v4.4.0 ('Die Wiederkehr') built on Oct 31 2010 21:52:48
Writing library                  : libebml v1.0.0 + libmatroska v1.0.0

Video
ID                               : 1
Format                           : AVC
Format/Info                      : Advanced Video Codec
Format profile                   : Main@L3.1
Format settings, CABAC           : No
Format settings, ReFrames        : 3 frames
Muxing mode                      : Header stripping
Codec ID                         : V_MPEG4/ISO/AVC
Duration                         : 1h 57mn
Bit rate                         : 1 699 Kbps
Nominal bit rate                 : 1 800 Kbps
Width                            : 1 280 pixels
Height                           : 528 pixels
Display aspect ratio             : 2.40:1
Frame rate                       : 23.976 fps
Color space                      : YUV
Chroma subsampling               : 4:2:0
Bit depth                        : 8 bits
Scan type                        : Progressive
Bits/(Pixel*Frame)               : 0.105
Stream size                      : 1.40 GiB (75%)
Title                            : ^^TAKRIAN^^^ENGLISH^^
Writing library                  : x264 core 79
Encoding settings                : cabac=0 / ref=3 / deblock=1:0:0 / analyse=0x1:0x111 / me=hex / subme=7 / psy=1 / psy_rd=1.0:0.0 / mixed_ref=0 / me_range=16 / chroma_me=1 / trellis=0 / 8x8dct=0 / cqm=0 / deadzone=21,11 / chroma_qp_offset=-2 / threads=3 / nr=0 / decimate=1 / mbaff=0 / constrained_intra=0 / bframes=3 / b_pyramid=0 / b_adapt=1 / b_bias=0 / direct=1 / wpredb=0 / wpredp=2 / keyint=240 / keyint_min=24 / scenecut=40 / rc_lookahead=40 / rc=abr / mbtree=1 / bitrate=1800 / ratetol=1.0 / qcomp=0.60 / qpmin=10 / qpmax=51 / qpstep=4 / ip_ratio=1.40 / aq=1:1.00
Language                         : English
Color primaries                  : BT.709-5, BT.1361, IEC 61966-2-4, SMPTE RP177
Transfer characteristics         : BT.709-5, BT.1361
Matrix coefficients              : BT.709-5, BT.1361, IEC 61966-2-4 709, SMPTE RP177

Audio #1
ID                               : 2
Format                           : AC-3
Format/Info                      : Audio Coding 3
Mode extension                   : CM (complete main)
Muxing mode                      : Header stripping
Codec ID                         : A_AC3
Duration                         : 1h 57mn
Bit rate mode                    : Constant
Bit rate                         : 384 Kbps
Channel(s)                       : 6 channels
Channel positions                : Front: L C R, Side: L R, LFE
Sampling rate                    : 48.0 KHz
Bit depth                        : 16 bits
Compression mode                 : Lossy
Stream size                      : 323 MiB (17%)
Title                            : ^^TAKRIAN^^^ENGLISH^^
Language                         : English

Audio #2
ID                               : 4
Format                           : MPEG Audio
Format version                   : Version 1
Format profile                   : Layer 3
Muxing mode                      : Header stripping
Codec ID                         : A_MPEG/L3
Codec ID/Hint                    : MP3
Duration                         : 1h 57mn
Bit rate mode                    : Constant
Bit rate                         : 128 Kbps
Channel(s)                       : 2 channels
Sampling rate                    : 44.1 KHz
Compression mode                 : Lossy
Delay relative to video          : 4s 700ms
Stream size                      : 108 MiB (6%)
Title                            : ^^TAKRIAN^^^HINDI^^
Language                         : Hindi

Text
ID                               : 3
Format                           : UTF-8
Codec ID                         : S_TEXT/UTF8
Codec ID/Info                    : UTF-8 Plain Text


[img]http://img580.imageshack.us/img580/7456/vlcsnap2012012521h10m23.png[/img]
[img]http://img17.imageshack.us/img17/907/vlcsnap2012012521h09m24.png[/img]
[img]http://img542.imageshack.us/img542/1453/vlcsnap2012012521h09m06.png[/img]
[img]http://img163.imageshack.us/img163/3855/vlcsnap2012012521h08m23.png[/img]
[img]http://img717.imageshack.us/img717/4677/vlcsnap2012012521h08m12.png[/img]
[img]http://img46.imageshack.us/img46/4333/vlcsnap2012012521h43m20.png[/img]